<svg width="72" height="72" viewBox="0 0 72 72" fill="none" xmlns="http://www.w3.org/2000/svg">
<path d="M29.8637 28.5C29.8637 29.6935 29.3881 30.8381 28.5414 31.682C27.6948 32.5259 26.5465 33 25.3491 33C24.1518 33 23.0035 32.5259 22.1568 31.682C21.3102 30.8381 20.8345 29.6935 20.8345 28.5C20.8345 27.3065 21.3102 26.1619 22.1568 25.318C23.0035 24.4741 24.1518 24 25.3491 24C26.5465 24 27.6948 24.4741 28.5414 25.318C29.3881 26.1619 29.8637 27.3065 29.8637 28.5ZM46.4173 24C45.2199 24 44.0716 24.4741 43.2249 25.318C42.3783 26.1619 41.9027 27.3065 41.9027 28.5C41.9027 29.6935 42.3783 30.8381 43.2249 31.682C44.0716 32.5259 45.2199 33 46.4173 33C47.6146 33 48.7629 32.5259 49.6096 31.682C50.4562 30.8381 50.9319 29.6935 50.9319 28.5C50.9319 27.3065 50.4562 26.1619 49.6096 25.318C48.7629 24.4741 47.6146 24 46.4173 24ZM72 36C71.9896 26.4554 68.1812 17.3046 61.4102 10.5556C54.6392 3.80648 45.4588 0.0103232 35.8832 0C-11.9716 1.8 -11.9505 70.2 35.8832 72C45.4588 71.9897 54.6392 68.1935 61.4102 61.4444C68.1812 54.6954 71.9896 45.5446 72 36ZM65.9805 36C65.9718 43.9538 62.798 51.5794 57.1555 57.2036C51.5131 62.8278 43.8628 65.9913 35.8832 66C-3.99279 64.5 -3.97774 7.5 35.8832 6C43.8628 6.00873 51.5131 9.17225 57.1555 14.7964C62.798 20.4206 65.9718 28.0462 65.9805 36ZM53.1771 52.998C53.4404 52.7041 53.643 52.3614 53.7733 51.9895C53.9037 51.6175 53.9593 51.2236 53.9369 50.8303C53.9146 50.4369 53.8147 50.0518 53.643 49.6969C53.4713 49.3421 53.2312 49.0244 52.9363 48.762C48.1573 44.6924 42.1608 42.3147 35.8832 42C35.085 42 34.3194 42.3161 33.755 42.8787C33.1905 43.4413 32.8735 44.2043 32.8735 45C32.8735 45.7957 33.1905 46.5587 33.755 47.1213C34.3194 47.6839 35.085 48 35.8832 48C40.6814 48.3205 45.2525 50.1562 48.9334 53.241C49.5289 53.7687 50.3101 54.0395 51.1056 53.9939C51.9012 53.9484 52.6461 53.5902 53.1771 52.998ZM14.815 48C14.815 49.5913 15.4492 51.1174 16.5781 52.2426C17.707 53.3679 19.238 54 20.8345 54C22.431 54 23.962 53.3679 25.0909 52.2426C26.2198 51.1174 26.854 49.5913 26.854 48C26.3256 44.2382 24.7182 40.7087 22.225 37.836C19.2093 34.536 14.6736 45.456 14.815 48Z" fill="#499CD7"/>
</svg>
