<svg width="72" height="79" viewBox="0 0 72 79" fill="none" xmlns="http://www.w3.org/2000/svg">
<path d="M18.7396 22.4943C17.9018 22.4943 17.064 22.1717 16.4258 21.5299L9.48109 14.5453C8.20145 13.2583 8.20145 11.178 9.48109 9.89105C10.7607 8.60406 12.8291 8.60406 14.1087 9.89105L21.0535 16.8757C22.3331 18.1627 22.3331 20.2429 21.0535 21.5299C20.4153 22.1717 19.5775 22.4943 18.7396 22.4943ZM48.9273 21.2764L55.8687 14.2951C57.1484 13.0081 57.1484 10.9279 55.8687 9.64089C54.5891 8.3539 52.5207 8.3539 51.2411 9.64089L44.2996 16.6222C43.02 17.9092 43.02 19.9895 44.2996 21.2764C45.5793 22.5634 47.6476 22.5634 48.9273 21.2764ZM36 13.1661V3.29153C36 1.47461 34.5338 0 32.7273 0C30.9207 0 29.4545 1.47461 29.4545 3.29153V13.1661C29.4545 14.983 30.9207 16.4576 32.7273 16.4576C34.5338 16.4576 36 14.983 36 13.1661ZM65.4545 32.9153C65.4545 31.0984 63.9884 29.6238 62.1818 29.6238H52.3636C50.5571 29.6238 49.0909 31.0984 49.0909 32.9153C49.0909 34.7322 50.5571 36.2068 52.3636 36.2068H62.1818C63.9884 36.2068 65.4545 34.7322 65.4545 32.9153ZM16.3636 32.9153C16.3636 31.0984 14.8975 29.6238 13.0909 29.6238H3.27273C1.46618 29.6238 0 31.0984 0 32.9153C0 34.7322 1.46618 36.2068 3.27273 36.2068H13.0909C14.8975 36.2068 16.3636 34.7322 16.3636 32.9153ZM39.2727 52.6645L62.1851 61.7293C68.4425 64.2046 72 68.6054 72 75.3694C72 75.3694 72 79 68.5604 79H20.1338C17.7218 79 15.3916 78.1047 13.5916 76.4886L8.892 72.2655C5.89091 69.4414 5.75018 64.672 8.57127 61.6339C11.3891 58.5991 16.1411 58.4411 19.1585 61.2751C19.2698 61.3804 22.6571 64.2309 26.1785 67.1472V32.9153C26.1785 28.9161 29.7229 25.7529 33.8236 26.4211C37.0407 26.9478 39.2695 29.9858 39.2695 33.2675V52.6645H39.2727Z" fill="white"/>
</svg>
