<svg width="72" height="72" viewBox="0 0 72 72" fill="none" xmlns="http://www.w3.org/2000/svg">
<path d="M29.8637 36C29.0655 36 28.2999 35.6839 27.7355 35.1213C27.1711 34.5587 26.854 33.7957 26.854 33C26.854 29.838 24.8074 27 23.8442 27C22.8811 27 20.8345 29.838 20.8345 33C20.8345 33.7957 20.5174 34.5587 19.953 35.1213C19.3885 35.6839 18.623 36 17.8248 36C17.0265 36 16.261 35.6839 15.6966 35.1213C15.1321 34.5587 14.815 33.7957 14.815 33C14.815 27.324 18.523 21 23.8442 21C29.1655 21 32.8735 27.324 32.8735 33C32.8735 33.7957 32.5564 34.5587 31.9919 35.1213C31.4275 35.6839 30.6619 36 29.8637 36ZM56.9513 33C56.9513 27.324 53.2433 21 47.9221 21C42.6009 21 38.8929 27.324 38.8929 33C38.8929 33.7957 39.21 34.5587 39.7744 35.1213C40.3389 35.6839 41.1044 36 41.9027 36C42.7009 36 43.4664 35.6839 44.0309 35.1213C44.5953 34.5587 44.9124 33.7957 44.9124 33C44.9124 29.838 46.959 27 47.9221 27C48.8852 27 50.9319 29.838 50.9319 33C50.9319 33.7957 51.249 34.5587 51.8134 35.1213C52.3778 35.6839 53.1434 36 53.9416 36C54.7398 36 55.5054 35.6839 56.0698 35.1213C56.6342 34.5587 56.9513 33.7957 56.9513 33ZM72 36C71.9896 26.4554 68.1812 17.3046 61.4102 10.5556C54.6392 3.80648 45.4588 0.0103232 35.8832 0C-11.9716 1.8 -11.9505 70.2 35.8832 72C45.4588 71.9897 54.6392 68.1935 61.4102 61.4444C68.1812 54.6954 71.9896 45.5446 72 36ZM65.9805 36C65.9718 43.9538 62.798 51.5794 57.1555 57.2036C51.5131 62.8278 43.8628 65.9913 35.8832 66C-3.99279 64.5 -3.97774 7.5 35.8832 6C43.8628 6.00873 51.5131 9.17225 57.1555 14.7964C62.798 20.4206 65.9718 28.0462 65.9805 36ZM52.9363 47.238C53.5116 46.7035 53.854 45.9657 53.8905 45.1827C53.9269 44.3997 53.6544 43.6335 53.1313 43.0482C52.6082 42.4629 51.876 42.1049 51.0915 42.0508C50.3069 41.9968 49.5323 42.251 48.9334 42.759C45.3904 46.0487 40.7282 47.8778 35.8862 47.8778C31.0442 47.8778 26.382 46.0487 22.839 42.759C22.2435 42.2291 21.4612 41.9567 20.6643 42.0017C19.8673 42.0467 19.1209 42.4054 18.5892 42.999C18.0576 43.5926 17.7843 44.3723 17.8295 45.1667C17.8746 45.9611 18.2345 46.7051 18.83 47.235C23.6087 51.3057 29.6052 53.6845 35.8832 54C42.1608 53.6853 48.1573 51.3076 52.9363 47.238Z" fill="#308D62"/>
</svg>
