<svg width="72" height="72" viewBox="0 0 72 72" fill="none" xmlns="http://www.w3.org/2000/svg">
<path d="M29.8637 28.5C29.8637 29.6935 29.3881 30.8381 28.5414 31.682C27.6948 32.5259 26.5465 33 25.3491 33C24.1518 33 23.0035 32.5259 22.1568 31.682C21.3102 30.8381 20.8345 29.6935 20.8345 28.5C20.8345 27.3065 21.3102 26.1619 22.1568 25.318C23.0035 24.4741 24.1518 24 25.3491 24C26.5465 24 27.6948 24.4741 28.5414 25.318C29.3881 26.1619 29.8637 27.3065 29.8637 28.5ZM46.4173 24C45.2199 24 44.0716 24.4741 43.2249 25.318C42.3783 26.1619 41.9027 27.3065 41.9027 28.5C41.9027 29.6935 42.3783 30.8381 43.2249 31.682C44.0716 32.5259 45.2199 33 46.4173 33C47.6146 33 48.7629 32.5259 49.6096 31.682C50.4562 30.8381 50.9319 29.6935 50.9319 28.5C50.9319 27.3065 50.4562 26.1619 49.6096 25.318C48.7629 24.4741 47.6146 24 46.4173 24ZM72 36C71.9896 26.4554 68.1812 17.3046 61.4102 10.5556C54.6392 3.80648 45.4588 0.0103232 35.8832 0C-11.9716 1.8 -11.9505 70.2 35.8832 72C45.4588 71.9897 54.6392 68.1935 61.4102 61.4444C68.1812 54.6954 71.9896 45.5446 72 36ZM65.9805 36C65.9718 43.9538 62.798 51.5794 57.1555 57.2036C51.5131 62.8278 43.8628 65.9913 35.8832 66C-3.99279 64.5 -3.97774 7.5 35.8832 6C43.8628 6.00873 51.5131 9.17225 57.1555 14.7964C62.798 20.4206 65.9718 28.0462 65.9805 36Z" fill="white"/>
<path d="M25.1568 46H46.6096C48.1096 46 49.6096 47.3431 49.6096 49C49.6096 50.6569 48.1096 52 46.6096 52H25.1568C23.6568 52 22.1568 50.5 22.1568 49C22.1568 47.5 23.6568 46 25.1568 46Z" fill="white"/>
</svg>
