<svg width="59" height="58" viewBox="0 0 59 58" fill="none" xmlns="http://www.w3.org/2000/svg">
<path d="M54.0833 24.0456H34.4167V4.80911C34.4167 3.53366 33.8987 2.31044 32.9766 1.40856C32.0546 0.506674 30.804 0 29.5 0C28.196 0 26.9454 0.506674 26.0234 1.40856C25.1013 2.31044 24.5833 3.53366 24.5833 4.80911V24.0456H4.91667C3.61269 24.0456 2.36211 24.5522 1.44006 25.4541C0.518005 26.356 0 27.5792 0 28.8547C0 30.1301 0.518005 31.3534 1.44006 32.2552C2.36211 33.1571 3.61269 33.6638 4.91667 33.6638H24.5833V52.9003C24.5833 54.1757 25.1013 55.3989 26.0234 56.3008C26.9454 57.2027 28.196 57.7094 29.5 57.7094C30.804 57.7094 32.0546 57.2027 32.9766 56.3008C33.8987 55.3989 34.4167 54.1757 34.4167 52.9003V33.6638H54.0833C55.3873 33.6638 56.6379 33.1571 57.5599 32.2552C58.482 31.3534 59 30.1301 59 28.8547C59 27.5792 58.482 26.356 57.5599 25.4541C56.6379 24.5522 55.3873 24.0456 54.0833 24.0456Z" fill="white"/>
</svg>
